<svg xmlns="http://www.w3.org/2000/svg" viewBox="0 0 80 80"><path fill="#ffeea3" d="M40,64.573l-24.33,12.52l4.784-26.724L1.068,31.365l26.85-3.979L40,3.08l12.082,24.307l26.85,3.979 L59.549,50.372l4.781,26.721L40,64.573z M43.471,58.487l11.649,5.879l-2.43-12.588l-0.649-3.849l11.937-11.703l-16.537-2.45 L40,18.808l-7.44,14.969l-16.534,2.45l11.937,11.7l-0.651,3.861L24.88,64.365l11.644-5.875L40,56.676L43.471,58.487z"></path><path fill="#ba9b48" d="M40,4.204l11.518,23.172l0.232,0.468l0.516,0.077l25.597,3.793L59.388,49.83l-0.377,0.37l0.093,0.52 l4.556,25.466L40.458,64.247L40,64.011l-0.458,0.235L16.341,76.185l4.558-25.468l0.093-0.52l-0.377-0.37L2.137,31.713l25.596-3.793 l0.516-0.077l0.232-0.468L40,4.204 M32.228,33.319l-3.615,0.536l-11.666,1.729l-1.99,0.295l1.437,1.408l8.421,8.256l2.61,2.559 l-0.604,3.581L24.583,63.27l-0.386,2l1.819-0.918l10.745-5.422L40,57.239l3.252,1.697l10.734,5.417l1.819,0.918l-0.386-2 l-2.233-11.564l-0.607-3.603l2.609-2.558l8.422-8.259l1.436-1.408l-1.99-0.295l-11.668-1.729l-3.615-0.536l-1.627-3.273 l-5.25-10.561L40,17.684l-0.895,1.802l-5.25,10.561L32.228,33.319 M40,1.957L27.587,26.931L0,31.019l19.915,19.523L15,78l25-12.864 L65,78l-4.912-27.456L80,31.019l-27.587-4.088L40,1.957L40,1.957z M25.565,63.46l2.239-11.588l0.695-4.119l-2.983-2.924 l-8.421-8.256l11.666-1.729l4.132-0.612l1.859-3.74L40,19.93l5.25,10.561l1.859,3.74l4.132,0.612l11.668,1.729l-8.422,8.259 l-2.982,2.924l0.694,4.118l2.237,11.587l-10.734-5.417L40,56.111l-3.702,1.933L25.565,63.46L25.565,63.46z"></path></svg>